<?xml version="1.0" encoding="UTF-8"?>
<svg width="502px" height="239px" viewBox="0 0 502 239" version="1.1" xmlns="http://www.w3.org/2000/svg" xmlns:xlink="http://www.w3.org/1999/xlink">
    <!-- Generator: Sketch 43.2 (39069) - http://www.bohemiancoding.com/sketch -->
    <title>boanlogo</title>
    <desc>Created with Sketch.</desc>
    <defs></defs>
    <g id="Page-1" stroke="none" stroke-width="1" fill="none" fill-rule="evenodd">
        <g id="boanlogo" fill="#FFFFFF">
            <path d="M0,195 L24.6,55 L69,55 C81.66673,55 91.3333,58.066636 98,64.2 C104.6667,70.333364 108,78.199952 108,87.8 C108,96.066708 105.633357,102.999972 100.9,108.6 C96.166643,114.200028 90.333368,118.399986 83.4,121.2 L83.4,121.6 C95.933396,127.333362 102.2,137.133264 102.2,151 C102.2,163.66673 97.633379,174.166625 88.5,182.5 C79.366621,190.833375 65.933422,195 48.2,195 L0,195 Z M31,114.2 L59.4,114.2 C69.933386,114.2 77.86664,111.86669 83.2,107.2 C88.53336,102.53331 91.2,96.333372 91.2,88.6 C91.2,82.866638 89.066688,78.300017 84.8,74.9 C80.533312,71.499983 74.40004,69.8 66.4,69.8 L38.8,69.8 L31,114.2 Z M19.4,179.8 L50.6,179.8 C60.733384,179.8 69.099967,177.033361 75.7,171.5 C82.300033,165.966639 85.6,158.933376 85.6,150.4 C85.6,143.466632 83.200024,138.066686 78.4,134.2 C73.599976,130.333314 66.53338,128.4 57.2,128.4 L28.4,128.4 L19.4,179.8 Z M177.8,181.8 C189.933394,181.8 200.299957,175.366731 208.9,162.5 C217.500043,149.633269 221.8,133.333432 221.8,113.6 C221.8,99.466596 219.100027,88.266708 213.7,80 C208.299973,71.733292 200.733382,67.6 191,67.6 C178.733272,67.6 168.200044,74.133268 159.4,87.2 C150.599956,100.266732 146.2,116.666568 146.2,136.4 C146.2,150.533404 148.933306,161.633293 154.4,169.7 C159.866694,177.766707 167.666616,181.8 177.8,181.8 Z M177.6,198 C162.666592,198 150.766711,192.533388 141.9,181.6 C133.033289,170.666612 128.6,155.933426 128.6,137.4 C128.6,124.0666 130.433315,111.866722 134.1,100.8 C137.766685,89.733278 142.633303,80.733368 148.7,73.8 C154.766697,66.866632 161.499963,61.500019 168.9,57.7 C176.300037,53.899981 183.866628,52 191.6,52 C206.000072,52 217.599956,57.566611 226.4,68.7 C235.200044,79.833389 239.6,94.466576 239.6,112.6 C239.6,125.9334 237.766685,138.133278 234.1,149.2 C230.433315,160.266722 225.60003,169.266632 219.6,176.2 C213.59997,183.133368 206.966703,188.499981 199.7,192.3 C192.433297,196.100019 185.066704,198 177.6,198 Z M348.2,195 L343,166.8 L279.4,166.8 L264.6,195 L246.8,195 L321.8,55 L339.2,55 L365,195 L348.2,195 Z M326.6,77 L286.4,153.2 L340.6,153.2 L327,77 L326.6,77 Z M386.4,195 L411,55 L429,55 L465.4,169.2 L465.8,169.2 L485.8,55 L501.6,55 L477,195 L459,195 L422.8,80.8 L422.4,80.8 L402.4,195 L386.4,195 Z" id="BOAN"></path>
        </g>
    </g>
</svg>