<?xml version="1.0" standalone="no"?>
<!DOCTYPE svg PUBLIC "-//W3C//DTD SVG 20010904//EN"
 "http://www.w3.org/TR/2001/REC-SVG-20010904/DTD/svg10.dtd">
<svg version="1.0" xmlns="http://www.w3.org/2000/svg"
 width="512.000000pt" height="512.000000pt" viewBox="0 0 512.000000 512.000000"
 preserveAspectRatio="xMidYMid meet">
<metadata>
Created by potrace 1.11, written by Peter Selinger 2001-2013
</metadata>
<g transform="translate(0.000000,512.000000) scale(0.100000,-0.100000)"
fill="#000000" stroke="none">
<path d="M2281 4638 c-6 -29 -13 -69 -17 -88 -16 -97 -61 -352 -69 -390 -2
-13 -7 -40 -10 -60 -3 -20 -8 -47 -10 -60 -3 -14 -18 -101 -35 -195 -16 -93
-32 -181 -34 -195 -3 -14 -19 -104 -35 -200 -17 -96 -33 -187 -36 -203 -3 -15
-9 -53 -15 -85 -20 -119 -22 -129 -35 -192 -3 -14 -7 -41 -10 -60 -2 -19 -7
-46 -9 -60 -3 -13 -8 -40 -11 -60 -3 -20 -8 -47 -10 -60 -3 -14 -8 -41 -11
-60 -3 -19 -7 -48 -10 -65 -3 -16 -11 -61 -19 -100 -7 -38 -16 -90 -20 -115
-3 -25 -8 -52 -10 -60 -2 -8 -7 -35 -10 -60 -4 -24 -8 -47 -10 -50 -2 -3 -6
-26 -10 -50 -5 -38 -44 -261 -61 -350 -2 -14 -7 -41 -10 -60 -8 -50 -10 -66
-43 -250 -36 -197 -39 -213 -46 -265 -4 -22 -8 -47 -10 -55 -2 -8 -7 -31 -10
-50 -21 -132 -67 -392 -75 -427 -6 -23 -10 -46 -10 -51 0 -8 63 -25 140 -36
19 -3 45 -8 56 -10 12 -2 37 -7 55 -10 52 -8 427 -74 489 -86 30 -5 96 -17
145 -25 119 -21 303 -53 342 -61 33 -7 34 -6 49 81 2 17 14 82 25 145 12 63
23 124 24 135 6 35 83 474 110 625 14 80 27 156 29 170 3 14 21 117 41 230 20
113 38 214 39 225 10 55 16 92 20 115 2 14 13 77 25 140 11 63 23 131 26 150
3 19 8 42 10 50 2 8 6 38 10 65 3 28 8 57 10 65 2 8 7 31 10 50 3 19 14 82 25
140 28 161 32 183 36 205 1 11 5 29 7 40 4 18 7 37 24 135 2 14 8 50 14 80 22
124 71 407 75 430 3 25 9 60 19 110 5 26 9 44 25 142 6 32 12 70 15 85 3 16
14 80 25 143 11 63 22 126 25 140 7 34 25 133 25 136 0 2 -38 9 -97 20 -13 2
-35 6 -50 9 -45 8 -205 36 -238 41 -16 3 -37 7 -45 9 -8 2 -31 6 -50 9 -50 8
-720 125 -752 132 -25 5 -27 3 -37 -48z"/>
</g>
</svg>
